# xmcd
#
# Track frame offsets: 
#        150
#        12639
#        25754
#        39485
#        52144
#        66305
#        80140
#        92609
#        104864
#        119101
#        132029
#        146489
#        159856
#        173406
#        185742
#        199549
#        212672
#        225182
#
# Disc length: 3191 seconds
#
# Revision: 0
# Processed by: cddbd v1.5.2PL0 Copyright (c) Steve Scherf et al.
# Submitted via: ExactAudioCopy v0.99pb5
#
DISCID=fb0c7512
DTITLE=Various Artist - Smithsonian Collection of Classic Country Music Disc 
DTITLE=02
DYEAR=1981
DGENRE=Country
TTITLE0=Arthur Smith - Mocking Bird
TTITLE1=Riley Puckett - Ragged but Right
TTITLE2=Cliff Carlisle - Black Jack David
TTITLE3=Coon Creek Girls - Pretty Polly
TTITLE4=Mac and Bob - Twenty One Years
TTITLE5=Callahan Brothers - She's My Curley Headed Baby
TTITLE6=Blue Sky Boys - The East Bound Train
TTITLE7=Delmore Brothers - Brown's Ferry Blues
TTITLE8=Monroe Brothers - What Would You Give In Exchange
TTITLE9=Rouse Brothers - Orange Blossom Special
TTITLE10=Red Foley - Old Shep
TTITLE11=Karl and Harty - I'm Here To Get My Baby Out of Jail
TTITLE12=Lulu Belle and Scotty - Remember Me
TTITLE13=J.E. Mainer's Mountaineers - Maple on the Hill
TTITLE14=Rex Griffin - The Last Letter
TTITLE15=Roy Acuff - Great Speckled Bird
TTITLE16=Roy Acuff - The Precious Jewel
TTITLE17=Carter Family - Can the Circle Be Unbroken
EXTD=
EXTT0=
EXTT1=
EXTT2=
EXTT3=
EXTT4=
EXTT5=
EXTT6=
EXTT7=
EXTT8=
EXTT9=
EXTT10=
EXTT11=
EXTT12=
EXTT13=
EXTT14=
EXTT15=
EXTT16=
EXTT17=
PLAYORDER=
